HIERARCHY
ROOT Hips
{
	OFFSET 0.000000 0.000000 0.000000 
	CHANNELS 6 Xposition Yposition Zposition Zrotation Yrotation Xrotation
	JOINT LeftUpLeg
	{
		OFFSET 1.363060 -1.794630 0.839290 
		CHANNELS 3 Zrotation Yrotation Xrotation
		JOINT LeftLeg
		{
			OFFSET 2.448110 -6.726130 0.000000 
			CHANNELS 3 Zrotation Yrotation Xrotation
			JOINT LeftFoot
			{
				OFFSET 2.562200 -7.039590 0.000000 
				CHANNELS 3 Zrotation Yrotation Xrotation
				JOINT LeftToeBase
				{
					OFFSET 0.157640 -0.433110 2.322550 
					CHANNELS 3 Zrotation Yrotation Xrotation
					End Site
					{
						OFFSET 0.000000 0.000000 0.000000 
					}
				}
			}
		}
	}
	JOINT RightUpLeg
	{
		OFFSET -1.305520 -1.794630 0.839290 
		CHANNELS 3 Zrotation Yrotation Xrotation
		JOINT RightLeg
		{
			OFFSET -2.542530 -6.985550 0.000000 
			CHANNELS 3 Zrotation Yrotation Xrotation
			JOINT RightFoot
			{
				OFFSET -2.568260 -7.056230 0.000000 
				CHANNELS 3 Zrotation Yrotation Xrotation
				JOINT RightToeBase
				{
					OFFSET -0.164730 -0.452590 2.363150 
					CHANNELS 3 Zrotation Yrotation Xrotation
					End Site
					{
						OFFSET 0.000000 0.000000 0.000000 
					}
				}
			}
		}
	}
	JOINT Spine
	{
		OFFSET 0.028270 2.035590 -0.193380 
		CHANNELS 3 Zrotation Yrotation Xrotation
		JOINT Spine1
		{
			OFFSET 0.056720 2.048850 -0.042750 
			CHANNELS 3 Zrotation Yrotation Xrotation
			JOINT Neck1
			{
				OFFSET -0.054170 1.746240 0.172020 
				CHANNELS 3 Zrotation Yrotation Xrotation
				JOINT Head
				{
					OFFSET 0.104070 1.761360 -0.123970 
					CHANNELS 3 Zrotation Yrotation Xrotation
					End Site
					{
						OFFSET 0.000000 0.000000 0.000000 
					}
				}
			}
			JOINT LeftArm
			{
				OFFSET 3.362410 1.200890 -0.311210 
				CHANNELS 3 Zrotation Yrotation Xrotation
				JOINT LeftForeArm
				{
					OFFSET 4.983000 -0.000000 -0.000000 
					CHANNELS 3 Zrotation Yrotation Xrotation
					JOINT LeftHand
					{
						OFFSET 3.483560 -0.000000 -0.000000 
						CHANNELS 3 Zrotation Yrotation Xrotation
						JOINT LeftHandIndex1
						{
							OFFSET 0.715260 -0.000000 -0.000000 
							CHANNELS 3 Zrotation Yrotation Xrotation
							End Site
							{
								OFFSET 0.000000 0.000000 0.000000 
							}
						}
					}
				}
			}
			JOINT RightArm
			{
				OFFSET -3.136600 1.374050 -0.404650 
				CHANNELS 3 Zrotation Yrotation Xrotation
				JOINT RightForeArm
				{
					OFFSET -5.241900 -0.000000 -0.000000 
					CHANNELS 3 Zrotation Yrotation Xrotation
					JOINT RightHand
					{
						OFFSET -3.444170 -0.000000 -0.000000 
						CHANNELS 3 Zrotation Yrotation Xrotation
						JOINT RightHandIndex1
						{
							OFFSET -0.622530 -0.000000 -0.000000 
							CHANNELS 3 Zrotation Yrotation Xrotation
							End Site
							{
								OFFSET 0.000000 0.000000 0.000000 
							}
						}
					}
				}
			}
		}
	}
}
MOTION
Frames: 9
Frame Time: 0.041667
-6.925173 17.334102 7.755329 -165.912993 16.310924 -168.761187 6.733966 -11.535594 -25.022540 6.417277 14.987146 46.800603 0.042321 4.501612 -10.321997 0.154000 -2.529000 -6.970100 25.353139 5.011078 -18.884613 -3.501475 -9.356209 27.746537 0.245166 -3.736544 -6.411848 -0.343000 3.763100 -10.411100 0.868387 -2.934226 1.993830 1.433574 -1.638628 0.123954 12.193290 -22.506195 24.366307 4.189500 -9.951600 14.959700 -79.142237 5.415679 15.246897 24.234740 -35.741571 -7.464647 0.885150 -0.286652 2.080259 -7.125000 0.000000 0.000000 76.235011 -4.726133 -6.513318 -65.749592 59.850136 -38.469121 0.016528 -0.311229 -70.478635 7.125000 0.000000 0.000000 
-6.994377 17.338872 7.684179 -166.145297 16.795245 -168.845486 7.055862 -12.679132 -23.546488 5.801727 14.361714 44.256433 0.086884 3.398888 -9.607987 0.510200 -4.578700 -12.710700 24.769288 5.316246 -18.467402 -3.473158 -9.312926 27.578347 0.261162 -3.841002 -6.362967 -0.356300 3.835100 -10.613200 0.739830 -2.973447 1.958692 1.367223 -1.660265 0.125387 12.005173 -22.310266 24.198392 4.140400 -9.895000 14.786600 -79.161420 5.703466 15.184086 24.471350 -36.004939 -7.612315 0.885531 -0.279325 1.701707 -7.125000 0.000000 0.000000 76.189967 -5.004823 -6.101102 -66.056314 59.903892 -38.723216 0.020645 -0.309453 -70.236029 7.125000 0.000000 0.000000 
-7.064554 17.335952 7.622372 -166.455650 17.270207 -168.717690 7.292967 -13.626587 -22.373091 5.231936 13.729415 41.785115 0.176828 1.779658 -9.442046 1.240800 -7.063100 -19.902500 24.088971 5.511730 -18.510207 -3.470088 -9.302624 27.547821 0.249320 -3.752530 -6.226752 -0.391900 4.019800 -11.132400 0.652517 -2.969535 1.954349 1.432216 -1.669491 0.314905 12.154095 -22.232150 23.779340 4.197400 -9.871800 14.560100 -79.218215 5.710885 15.280505 24.782316 -36.364910 -7.834437 0.880714 -0.282881 1.279299 -7.125000 0.000000 0.000000 76.095223 -5.032406 -5.940403 -66.440874 59.980776 -39.036900 0.017292 -0.308856 -70.160907 7.125000 0.000000 0.000000 
-7.137652 17.330890 7.563096 -166.841040 17.755634 -168.627148 7.377898 -14.406702 -21.167033 4.746467 13.137185 39.560410 0.275395 -0.081288 -9.512064 1.720500 -8.257900 -23.500100 23.324814 5.601390 -18.632291 -3.480283 -9.320154 27.609834 0.224578 -3.581054 -6.097275 -0.420600 4.162600 -11.534500 0.562896 -2.956338 1.924896 1.559220 -1.673696 0.404252 12.201585 -22.400581 23.967654 4.157800 -9.910600 14.797900 -79.312142 5.674576 15.412788 25.183849 -36.804351 -8.086476 0.884146 -0.278384 1.018377 -7.125000 0.000000 0.000000 75.947690 -5.271277 -5.630053 -67.227147 60.133384 -39.676056 0.014833 -0.305630 -70.261553 7.125000 0.000000 0.000000 
-7.214350 17.320670 7.493794 -167.200590 18.515946 -168.722786 7.265754 -14.802306 -19.809531 4.382416 12.647416 37.785836 0.353136 -1.995000 -9.471366 1.666600 -8.134000 -23.121700 22.530093 5.880033 -18.481936 -3.494422 -9.352694 27.708469 0.190723 -3.354900 -6.020458 -0.445300 4.281400 -11.869600 0.467477 -2.842110 1.879195 1.709066 -1.625127 0.368974 12.386768 -22.405861 24.027028 4.240600 -9.894600 14.901000 -79.464458 5.929928 15.601940 25.691302 -37.330331 -8.390916 0.890347 -0.269837 0.743462 -7.125000 0.000000 0.000000 75.740241 -5.632788 -5.240873 -67.877364 60.247492 -40.205349 0.014367 -0.300656 -70.306136 7.125000 0.000000 0.000000 
-7.294164 17.292151 7.423714 -167.355538 19.384595 -168.878600 7.155155 -14.609728 -18.613891 4.146741 12.307018 36.580311 0.409525 -3.693985 -9.488615 2.146800 -9.165300 -26.313800 21.928784 6.265188 -18.143866 -3.499046 -9.369286 27.746361 0.154871 -3.116311 -5.981387 -0.463600 4.367500 -12.112800 0.388414 -2.572470 1.878004 1.719595 -1.488792 0.271959 12.301856 -22.423084 23.919953 4.184700 -9.908500 14.841100 -79.552771 6.129273 16.023933 26.064644 -37.722373 -8.647536 0.888777 -0.274523 0.379861 -7.125000 0.000000 0.000000 75.600017 -5.868830 -5.115240 -68.271590 60.313777 -40.524293 0.011651 -0.296635 -70.277670 7.125000 0.000000 0.000000 
-7.378941 17.263827 7.360642 -167.360981 20.047049 -168.896324 7.150209 -14.109607 -17.843195 4.013461 12.098945 35.853446 0.483465 -5.662758 -9.919542 3.060100 -10.791700 -31.580400 21.506247 6.499701 -17.951732 -3.489388 -9.353571 27.684307 0.124642 -2.908534 -5.931913 -0.471100 4.402200 -12.211000 0.238683 -2.416884 1.954731 1.338801 -1.408197 0.350995 12.432287 -22.523746 23.667928 4.176700 -9.933700 14.770400 -79.443803 5.950733 16.321259 26.264166 -37.937071 -8.787947 0.887329 -0.277494 0.220948 -7.125000 0.000000 0.000000 75.651421 -5.929989 -4.945836 -68.727146 60.393841 -40.902949 0.010120 -0.294411 -70.433622 7.125000 0.000000 0.000000 
-7.469948 17.234530 7.301172 -166.718112 20.620563 -168.506689 7.821677 -13.245018 -17.415535 3.920841 11.959491 35.343528 0.531982 -8.113079 -10.177349 3.581700 -11.582000 -34.268700 21.746125 6.888335 -17.937502 -3.485453 -9.325077 27.613588 0.097865 -2.717768 -5.910168 -0.460300 4.352200 -12.069600 0.312720 -2.407490 1.920787 0.924833 -1.394901 0.377084 12.904822 -22.406438 23.461758 4.420000 -9.872400 14.765800 -79.529307 6.004610 16.300880 26.594924 -38.266745 -8.986484 0.890933 -0.273234 0.102324 -7.125000 0.000000 0.000000 75.505719 -6.009240 -4.474383 -69.152315 60.465418 -41.255506 0.010366 -0.297967 -70.546081 7.125000 0.000000 0.000000 
-7.560176 17.212533 7.244037 -166.428334 21.195667 -168.252641 7.954689 -12.388888 -17.004849 3.841223 11.822260 34.862897 0.494828 -10.117224 -9.701989 3.509200 -11.476900 -33.905700 21.603259 7.485801 -17.933649 -3.504179 -9.350857 27.716156 0.093339 -2.700812 -6.019557 -0.461400 4.357100 -12.083600 0.445266 -2.457453 1.801495 0.920732 -1.413761 0.191432 13.084872 -22.190749 23.494331 4.591000 -9.797600 14.847000 -79.875791 6.250201 16.089736 26.933964 -38.593661 -9.187321 0.895259 -0.272785 0.152615 -7.125000 0.000000 0.000000 75.178967 -6.106463 -3.935857 -69.511319 60.522075 -41.550022 0.011308 -0.299885 -70.528296 7.125000 0.000000 0.000000 
